<svg width="14" height="12" viewBox="0 0 14 12" fill="none" xmlns="http://www.w3.org/2000/svg">
<path d="M5.39996 6H12.8666" stroke="#535454" stroke-width="2" stroke-miterlimit="10" stroke-linecap="round"/>
<path d="M1.66664 7.06665C2.25575 7.06665 2.73331 6.58909 2.73331 5.99998C2.73331 5.41088 2.25575 4.93332 1.66664 4.93332C1.07754 4.93332 0.599976 5.41088 0.599976 5.99998C0.599976 6.58909 1.07754 7.06665 1.66664 7.06665Z" fill="#535454"/>
<path d="M5.39996 1.73334H12.8666" stroke="#535454" stroke-width="2" stroke-miterlimit="10" stroke-linecap="round"/>
<path d="M1.66664 2.79999C2.25575 2.79999 2.73331 2.32243 2.73331 1.73332C2.73331 1.14422 2.25575 0.666656 1.66664 0.666656C1.07754 0.666656 0.599976 1.14422 0.599976 1.73332C0.599976 2.32243 1.07754 2.79999 1.66664 2.79999Z" fill="#535454"/>
<path d="M5.39996 10.2667H12.8666" stroke="#535454" stroke-width="2" stroke-miterlimit="10" stroke-linecap="round"/>
<path d="M1.66664 11.3333C2.25575 11.3333 2.73331 10.8558 2.73331 10.2666C2.73331 9.67755 2.25575 9.19998 1.66664 9.19998C1.07754 9.19998 0.599976 9.67755 0.599976 10.2666C0.599976 10.8558 1.07754 11.3333 1.66664 11.3333Z" fill="#535454"/>
</svg>
