<svg width="22" height="20" viewBox="0 0 22 20" fill="none" xmlns="http://www.w3.org/2000/svg">
<path d="M9.61542 5.80766C9.61542 8.53843 14.2308 13.3846 14.4231 13.5769L14.7693 13.923L15.1154 13.5769C15.3077 13.3846 19.9231 8.53843 19.9231 5.80766C19.9231 2.9615 17.6154 0.653809 14.7693 0.653809C11.9231 0.653809 9.61542 2.9615 9.61542 5.80766ZM16.4616 5.69227C16.4616 6.61535 15.6923 7.38458 14.7693 7.38458C13.8462 7.38458 13.077 6.61535 13.077 5.69227C13.077 4.76919 13.8462 3.99996 14.7693 3.99996C15.6923 3.99996 16.4616 4.76919 16.4616 5.69227Z" fill="#0094B3"/>
<path d="M19.1154 9.73071C18.7692 9.73071 18.4615 10.0384 18.4615 10.3846C18.4615 10.7307 18.7692 11.0384 19.1154 11.0384H19.3846L20.0769 14.6922L18.2308 16.0384L6.42309 11.0384H10.0385C10.3846 11.0384 10.6923 10.7307 10.6923 10.3846C10.6923 10.0384 10.3846 9.73071 10.0385 9.73071H2.00001L0.461548 19.9999H19.3846C20.8077 19.9999 21.9615 18.8461 21.9615 17.423L20.5 9.73071H19.1154ZM17 16.923L14.5 18.7307H3.96155L8.57693 13.3846L17 16.923ZM3.11539 11.0384L7.34616 12.8076L2.26924 18.7307H1.96155L3.11539 11.0384ZM19.3846 18.7307H16.7308L20.3846 16.0769L20.6539 17.4999C20.6154 18.1922 20.0385 18.7307 19.3846 18.7307Z" fill="#0094B3"/>
</svg>
