<svg width="32" height="32" viewBox="0 0 32 32" fill="none" xmlns="http://www.w3.org/2000/svg">
<circle cx="16" cy="16" r="16" fill="#0094B3"/>
<path d="M8.89688 7.58221V7.16373V6.71512H17.9317H18.432H18.4664V7.16995V7.65682V10.601H19.8371H21.8979H22.3183V13.0401V13.9966V17.5061H24.1854V13.9966V13.0401V10.601V9.37569L19.6917 4.88147H18.4664H7.02783V13.3663H8.89688V7.58221Z" fill="white"/>
<path d="M25.6958 24.1041V22.1586H24.7886C24.6791 21.7339 24.5035 21.336 24.2678 20.9801L24.8761 20.3718L23.7718 19.2675L23.1635 19.8768C22.81 19.642 22.415 19.4669 21.9922 19.3574V18.4478H20.0332V19.3574C19.6014 19.4693 19.1972 19.6487 18.8371 19.8911L18.2531 19.3072L17.1488 20.4105L17.7428 21.0041C17.5157 21.3522 17.3454 21.7391 17.2383 22.1519H16.3291V24.1094H17.2383C17.3478 24.5317 17.5233 24.9282 17.7572 25.2821L17.1488 25.8904L18.2531 26.9938L18.8615 26.3854C19.2164 26.6203 19.6128 26.7963 20.0366 26.9058V27.8135H21.9884V26.9058C22.4021 26.7987 22.7899 26.6279 23.1386 26.4008L23.7713 27.033L24.8756 25.9297L24.2524 25.3055C24.4959 24.944 24.6762 24.537 24.7876 24.1032H25.6958V24.1041ZM21.1724 24.5059C20.413 24.5059 19.7974 23.8904 19.7974 23.1309C19.7974 22.3714 20.413 21.7559 21.1724 21.7559C21.9319 21.7559 22.5474 22.3714 22.5474 23.1309C22.5474 23.8904 21.9319 24.5059 21.1724 24.5059Z" fill="white"/>
<path d="M15.4785 20.1188H16.5379V17.8485H15.4785C15.3508 17.3535 15.1466 16.8886 14.8711 16.4735L15.5813 15.7637L14.2934 14.4753L13.5836 15.186C13.1704 14.9124 12.7094 14.7082 12.2168 14.58V13.5183H9.93021V14.58C9.4266 14.7101 8.95503 14.9201 8.53512 15.2027L7.8536 14.5212L6.56516 15.8087L7.25816 16.5017C6.99321 16.9077 6.79425 17.3592 6.6699 17.8408H5.60864V20.125H6.66943C6.79712 20.6181 7.00134 21.0806 7.27538 21.4938L6.56516 22.204L7.85312 23.491L8.56334 22.7813C8.97751 23.0553 9.44047 23.2605 9.93451 23.3882V24.448H12.2115V23.3882C12.6946 23.2638 13.1475 23.0639 13.5545 22.7994L14.2929 23.5374L15.5809 22.2504L14.8534 21.5225C15.138 21.0997 15.3484 20.6243 15.4785 20.1188ZM11.0733 20.8567C10.0388 20.8567 9.1999 20.0179 9.1999 18.9834C9.1999 17.9489 10.0388 17.11 11.0733 17.11C12.1077 17.11 12.9466 17.9489 12.9466 18.9834C12.9466 20.0179 12.1077 20.8567 11.0733 20.8567Z" fill="white"/>
</svg>
