<svg width="32" height="32" viewBox="0 0 32 32" fill="none" xmlns="http://www.w3.org/2000/svg">
<path d="M31.9902 16C31.9902 24.8387 24.8289 32 15.9902 32C7.15144 32 0 24.8289 0 16C0 7.16125 7.16125 0 16 0C24.8387 0 31.9902 7.16125 31.9902 16Z" fill="#0094B3"/>
<path d="M16.0196 5.51355H9.37829H8.73083V9.75144H9.36848H11.095V7.70117H16.0098C21.3072 7.70117 24.7014 11.3603 24.7014 16.0004V16.0592C24.7014 20.6993 21.317 24.2996 16.0098 24.2996H12.6744V26.4872H16.0098C22.6021 26.4872 27.1539 21.906 27.1539 16.0004V15.9415C27.1539 10.0359 22.6021 5.51355 16.0196 5.51355Z" fill="white"/>
<path d="M16.0196 5.51324V5.74868H9.37826H8.96624V9.51569H9.37826H10.8694V7.46541H16.0196C18.7271 7.46541 20.9638 8.39736 22.5138 9.93752C24.0735 11.4777 24.9368 13.6162 24.9368 16.0001V16.0589C24.9368 18.4329 24.0637 20.5617 22.5138 22.0822C20.954 23.6126 18.7173 24.5249 16.0196 24.5249H12.9196V26.2416H16.0196C22.4941 26.2318 26.9184 21.7683 26.9282 15.9902V15.9314C26.9184 10.1631 22.5039 5.74868 16.0196 5.73887V5.51324V5.2778C19.3648 5.2778 22.2195 6.42556 24.2207 8.3385C26.2317 10.2514 27.3991 12.9197 27.3893 15.9314V15.9902C27.3893 19.0019 26.2219 21.6898 24.2207 23.6126C22.2096 25.5451 19.3648 26.7125 16.0196 26.7027H12.4488V24.0442H16.0196C18.6192 24.0442 20.7283 23.1613 22.19 21.7291C23.6517 20.2968 24.4757 18.3054 24.4757 16.0393V15.9804C24.4659 11.4581 21.209 7.92648 16.0196 7.91667H11.3402V9.96695H9.37826H8.7308H8.49536V5.25818H9.37826H16.0196V5.51324Z" fill="white"/>
<path d="M11.1146 24.2894H11.1048V20.0908H18.5702V18.3152H11.1048V13.1159H19.5414V11.3207H11.1048H9.28999H8.74063H8.65234V26.477H8.74063H9.28999H11.0558H11.1146V24.2894Z" fill="white"/>
<path d="M11.1146 24.2891V24.5246H11.1048H10.8694V19.855H18.3347V18.5503H10.8694V12.8802H19.3059V11.5558H11.1048H9.28995H8.7406H8.65231V11.3204H8.88775V26.4767H8.65231V26.2413H8.7406H9.28995H11.0557H11.1146V26.4767H10.8792V24.2891H11.1146V24.5246V24.2891H11.35V26.7122H11.0557H9.28995H8.7406H8.65231H8.41687V11.085H8.7406H9.28995H11.1048H19.7768V13.3511H11.3402V18.0794H18.8056V20.3259H11.3402V24.2891H11.1048V24.0537H11.1146H11.35V24.2891H11.1146Z" fill="white"/>
</svg>
