<svg width="23" height="16" viewBox="0 0 23 16" fill="none" xmlns="http://www.w3.org/2000/svg">
<path fill-rule="evenodd" clip-rule="evenodd" d="M1.48482 0.484841H18.4695C19.0218 0.484841 19.4696 0.932502 19.4696 1.48482C19.4696 2.03708 19.0218 2.4848 18.4695 2.4848H1.48482C0.932566 2.4848 0.484834 2.03708 0.484834 1.48482C0.484834 0.932502 0.932566 0.484841 1.48482 0.484841Z" fill="#6F6F6F"/>
<path fill-rule="evenodd" clip-rule="evenodd" d="M1.49275 6.93929H21.2192C21.7759 6.93929 22.2271 7.39059 22.2271 7.94721V7.96169C22.2271 8.51832 21.7759 8.96961 21.2192 8.96961H1.49275C0.936097 8.96961 0.484831 8.51832 0.484831 7.96169V7.94721C0.484831 7.39059 0.936097 6.93929 1.49275 6.93929Z" fill="#6F6F6F"/>
<path fill-rule="evenodd" clip-rule="evenodd" d="M1.48481 13.4243H15.5756C16.1279 13.4243 16.5756 13.8721 16.5756 14.4243C16.5756 14.9766 16.1279 15.4243 15.5756 15.4243H1.48481C0.932555 15.4243 0.484832 14.9766 0.484832 14.4243C0.484832 13.8721 0.932555 13.4243 1.48481 13.4243Z" fill="#6F6F6F"/>
</svg>
