<svg width="18" height="18" viewBox="0 0 18 18" fill="none" xmlns="http://www.w3.org/2000/svg">
<path d="M9.00001 17.4375C7.33123 17.4375 5.69992 16.9427 4.31238 16.0155C2.92484 15.0884 1.84338 13.7706 1.20477 12.2289C0.566156 10.6871 0.399065 8.99065 0.724628 7.35393C1.05019 5.71722 1.85379 4.2138 3.03379 3.03379C4.2138 1.85379 5.71722 1.05019 7.35393 0.724628C8.99065 0.399065 10.6871 0.566156 12.2289 1.20477C13.7706 1.84338 15.0884 2.92484 16.0155 4.31238C16.9427 5.69992 17.4375 7.33123 17.4375 9.00001C17.4375 11.2378 16.5486 13.3839 14.9662 14.9662C13.3839 16.5486 11.2378 17.4375 9.00001 17.4375ZM9.00001 1.6875C7.55373 1.6875 6.13993 2.11637 4.9374 2.91988C3.73486 3.72339 2.7976 4.86545 2.24414 6.20163C1.69067 7.53782 1.54586 9.00812 1.82801 10.4266C2.11017 11.8451 2.80661 13.1481 3.82929 14.1707C4.85196 15.1934 6.15492 15.8898 7.57341 16.172C8.99189 16.4542 10.4622 16.3093 11.7984 15.7559C13.1346 15.2024 14.2766 14.2651 15.0801 13.0626C15.8836 11.8601 16.3125 10.4463 16.3125 9.00001C16.3125 7.06061 15.5421 5.20065 14.1707 3.82929C12.7994 2.45793 10.9394 1.6875 9.00001 1.6875Z" fill="#101820" fill-opacity="0.4"/>
<path d="M9.5625 7.875H8.4375V12.9375H9.5625V7.875Z" fill="#101820" fill-opacity="0.4"/>
<path d="M9 6.75C8.7775 6.75 8.55999 6.68402 8.37498 6.5604C8.18998 6.43679 8.04578 6.26109 7.96064 6.05552C7.87549 5.84995 7.85321 5.62375 7.89662 5.40552C7.94003 5.1873 8.04717 4.98684 8.20451 4.82951C8.36184 4.67217 8.5623 4.56503 8.78052 4.52162C8.99875 4.47821 9.22495 4.50049 9.43052 4.58564C9.63609 4.67078 9.81179 4.81498 9.9354 4.99998C10.059 5.18499 10.125 5.4025 10.125 5.625C10.125 5.92337 10.0065 6.20952 9.7955 6.4205C9.58452 6.63147 9.29837 6.75 9 6.75Z" fill="#101820" fill-opacity="0.4"/>
</svg>
