<svg width="28" height="28" viewBox="0 0 28 28" fill="none" xmlns="http://www.w3.org/2000/svg">
<path d="M14 28C21.732 28 28 21.732 28 14C28 6.26801 21.732 0 14 0C6.26801 0 0 6.26801 0 14C0 21.732 6.26801 28 14 28Z" fill="white"/>
<path d="M9.625 9.625H6.125V21.875H9.625V9.625Z" fill="#363534"/>
<path d="M17.9366 9.625C15.4945 9.625 15.0745 10.5157 14.875 11.375V9.625H11.375V21.875H14.875V14.875C14.875 13.7401 15.4901 13.125 16.625 13.125C17.7327 13.125 18.375 13.727 18.375 14.875V21.875H21.875V15.75C21.875 12.25 21.4191 9.625 17.9366 9.625Z" fill="#363534"/>
<path d="M7.875 8.75C8.8415 8.75 9.625 7.9665 9.625 7C9.625 6.0335 8.8415 5.25 7.875 5.25C6.9085 5.25 6.125 6.0335 6.125 7C6.125 7.9665 6.9085 8.75 7.875 8.75Z" fill="#363534"/>
</svg>
