<svg width="32" height="32" viewBox="0 0 32 32" fill="none" xmlns="http://www.w3.org/2000/svg">
<circle cx="16" cy="16" r="16" fill="#0094B3"/>
<path d="M10.4347 16.9276C11.9715 16.9276 13.2173 15.6818 13.2173 14.145C13.2173 12.6082 11.9715 11.3624 10.4347 11.3624C8.89792 11.3624 7.6521 12.6082 7.6521 14.145C7.6521 15.6818 8.89792 16.9276 10.4347 16.9276Z" fill="white"/>
<path d="M25.2755 6.72461H12.2899V8.57968H25.2755V6.72461Z" fill="white"/>
<path d="M25.2754 10.4344H16V12.2895H25.2754V10.4344Z" fill="white"/>
<path d="M25.2753 14.1451H19.7101V16.0002H25.2753V14.1451Z" fill="white"/>
<path d="M14.145 21.8991L18.5693 16.5936L17.1409 15.4064L13.5977 19.6545C13.1765 18.9674 12.543 18.4362 11.793 18.1411C11.0431 17.8461 10.2174 17.8033 9.44096 18.0191C8.6645 18.235 7.97943 18.6978 7.48936 19.3376C6.99929 19.9774 6.73086 20.7593 6.72467 21.5652V25.2754H14.145V21.8991Z" fill="white"/>
</svg>
