<svg width="33" height="32" viewBox="0 0 33 32" fill="none" xmlns="http://www.w3.org/2000/svg">
<path d="M16.0049 32C24.8366 32 32.0098 24.8366 32.0098 15.9951C32.0098 7.15363 24.8366 0 16.0049 0C7.16345 0 0 7.16345 0 16.0049C0 24.8464 7.16345 32 16.0049 32Z" fill="#0094B3"/>
<path d="M14.2288 20.9804C11.5695 20.9804 9.41062 18.7528 9.41062 16.0052C9.41062 13.2576 11.5695 11.0301 14.2288 11.0301C16.8881 11.0301 19.0469 13.2576 19.0469 16.0052C19.0567 18.7528 16.8979 20.9804 14.2288 20.9804ZM19.9105 7.86047H8.5569C6.84945 7.86047 5.46582 9.29316 5.46582 11.0497V20.9608C5.46582 22.7271 6.84945 24.15 8.5569 24.15H19.9105C21.6179 24.15 23.0015 22.7173 23.0015 20.9608V11.0497C23.0015 9.28335 21.6179 7.86047 19.9105 7.86047Z" fill="white"/>
<path d="M17.2315 16.2897L15.2493 17.4673L13.2671 18.6448C13.0021 18.8018 12.7863 18.6743 12.7863 18.3603V15.9953V13.6402C12.7863 13.3164 13.0021 13.1888 13.2671 13.3557L15.2493 14.5332L17.2315 15.7108C17.4965 15.8776 17.4965 16.1327 17.2315 16.2897Z" fill="white"/>
<path d="M26.5047 21.2055L23.8749 19.6256V12.3836C23.8749 12.3836 25.5333 11.6771 26.5047 10.7939C27.4762 9.92057 28.2613 10.3523 28.2613 11.7654V20.234C28.2613 21.647 27.4762 22.0788 26.5047 21.2055Z" fill="white"/>
</svg>
