<svg width="32" height="32" viewBox="0 0 32 32" fill="none" xmlns="http://www.w3.org/2000/svg">
<path d="M31.9902 16C31.9902 24.8387 24.8289 32 15.9902 32C7.15144 32 0 24.8289 0 16C0 7.16125 7.16125 0 16 0C24.8388 0 31.9902 7.16125 31.9902 16Z" fill="#0094B3"/>
<path fill-rule="evenodd" clip-rule="evenodd" d="M25.3388 7.02405C25.5743 7.02405 25.7705 7.10253 25.9274 7.2693C26.0844 7.42626 26.1629 7.60283 26.1825 7.80884V21.4152L26.1727 21.4839C26.1629 21.6899 26.0746 21.8665 25.9274 22.0136C25.7803 22.1706 25.6037 22.2491 25.3977 22.2687H6.63129C6.41547 22.2589 6.21927 22.1804 6.0525 22.0136C5.88573 21.8567 5.80725 21.6605 5.80725 21.425V7.8677C5.80725 7.64207 5.88573 7.43606 6.0525 7.2693C6.21927 7.10253 6.41547 7.02405 6.65091 7.02405H25.3388ZM24.5246 8.68193H7.46513H7.45532L7.46513 19.3453H24.5246V8.68193ZM15.5583 20.3656C15.4406 20.4931 15.3817 20.6402 15.3817 20.807C15.3817 20.9738 15.4406 21.1209 15.5583 21.2386C15.676 21.3564 15.8134 21.425 15.9802 21.425H16.0096C16.1665 21.425 16.3039 21.3564 16.4216 21.2386C16.5491 21.1209 16.608 20.9738 16.608 20.807C16.608 20.6402 16.5393 20.4931 16.4216 20.3656C16.3039 20.2478 16.1567 20.189 15.99 20.189C15.8232 20.189 15.676 20.2478 15.5583 20.3656Z" fill="white"/>
<path d="M25.339 7.02389V6.78845C25.6235 6.78845 25.8981 6.89636 26.0943 7.10237C26.2905 7.28876 26.3984 7.53401 26.4181 7.79887V7.80869V21.4347L26.4083 21.5132L26.1728 21.4935L26.4083 21.5132C26.3886 21.7682 26.2807 22.0135 26.0845 22.19L25.9178 22.0233L26.0845 22.19C25.8981 22.3862 25.6627 22.504 25.3978 22.5138H25.388H6.62157C6.33708 22.5138 6.08202 22.3961 5.88582 22.19L6.05259 22.0233L5.88582 22.1802C5.67981 21.984 5.5719 21.7094 5.5719 21.4249V7.86755C5.5719 7.58306 5.67981 7.30838 5.88582 7.10237C6.09183 6.90617 6.3567 6.78845 6.651 6.78845H25.339V7.02389V7.25933H6.651C6.47442 7.25933 6.34689 7.31819 6.21936 7.43591L6.05259 7.26914L6.21936 7.43591C6.10164 7.56344 6.04278 7.69097 6.04278 7.86755V21.4249C6.04278 21.6015 6.09183 21.7192 6.21936 21.8467C6.34689 21.9742 6.47442 22.0233 6.63138 22.0331V22.2685V22.0331H25.4076V22.2685L25.388 22.0331C25.5352 22.0233 25.6529 21.9644 25.7608 21.8467C25.8785 21.7388 25.9276 21.6211 25.9374 21.4739L25.9472 21.4151V7.81849H26.1826L25.9472 7.83811C25.9374 7.68116 25.8785 7.56344 25.7608 7.44572C25.6333 7.328 25.5155 7.26914 25.339 7.26914V7.02389ZM24.5247 8.68177V8.91721H7.37693L7.30826 8.85835L7.45541 8.67196H7.69085V19.0999H24.2795V8.67196L24.5247 8.68177L24.6915 8.84854L24.6228 8.91721H24.5247V8.68177L24.358 8.515L24.7602 8.11279V19.5806H7.22978L7.21997 8.18146L7.5437 8.43652H24.5247V8.68177L24.358 8.515L24.5247 8.68177ZM15.5584 20.3654L15.7252 20.5322C15.6467 20.6106 15.6173 20.6891 15.6173 20.8068C15.6173 20.9246 15.6467 20.9932 15.7252 21.0717C15.8037 21.1502 15.8822 21.1894 15.9901 21.1894L15.9803 21.4249V21.1894H16.0097V21.4249L15.9999 21.1894C16.098 21.1894 16.1667 21.1502 16.2451 21.0717C16.3236 20.9932 16.353 20.9246 16.3629 20.8068C16.3629 20.6989 16.3236 20.6205 16.2451 20.542C16.1667 20.4635 16.098 20.4341 15.9803 20.4341C15.8724 20.4341 15.7939 20.4635 15.7056 20.542L15.5584 20.3654L15.7252 20.5322L15.5584 20.3654L15.3917 20.1986C15.5486 20.0417 15.7644 19.9534 15.9901 19.9534C16.2157 19.9534 16.4315 20.0417 16.5885 20.1986C16.7553 20.3556 16.8435 20.5714 16.8435 20.797C16.8435 21.0227 16.7454 21.2483 16.5885 21.3954L16.4217 21.2287L16.5885 21.3954C16.4413 21.5524 16.2353 21.6505 16.0097 21.6505H15.9705C15.7448 21.6505 15.5388 21.5524 15.3917 21.3954C15.2249 21.2385 15.1464 21.0227 15.1464 20.797C15.1464 20.5714 15.2347 20.3556 15.3917 20.1986L15.5584 20.3654Z" fill="white"/>
<path fill-rule="evenodd" clip-rule="evenodd" d="M21.9547 16.8729L20.7186 17.5792L19.9927 16.3236L18.737 17.5792L18.1484 11.7129L22.9455 15.1562L21.2288 15.6074L21.9547 16.8729Z" fill="white"/>
<path fill-rule="evenodd" clip-rule="evenodd" d="M14.8032 23.1119H17.1772C17.0988 24.5246 18.6193 25.329 21.7192 25.5154V26.6435H10.2612V25.5056C13.371 25.3192 14.8817 24.5148 14.8032 23.1119Z" fill="white"/>
<path d="M14.8033 23.1122V22.8768H17.4226L17.4128 23.122V23.2103C17.4226 23.7891 17.7071 24.2207 18.4232 24.5837C19.1295 24.9466 20.238 25.1821 21.739 25.2704L21.9646 25.2802V26.8694H10.0259V25.2802L10.2417 25.2704C11.7622 25.1821 12.8708 24.9368 13.5673 24.5641C14.2638 24.1913 14.5581 23.7498 14.5581 23.1416V23.1122L14.5483 22.8669H14.7935V23.1122L15.029 23.1024V23.1612C15.0388 23.946 14.5875 24.5837 13.7831 24.9957C12.9787 25.4175 11.8211 25.653 10.2613 25.7511V25.5058H10.4968V26.3985H21.4839V25.5058H21.7193L21.7095 25.7413C20.1792 25.6432 19.0216 25.4077 18.2074 25.0055C17.403 24.6033 16.9321 23.9755 16.9419 23.2103V23.1024L17.1773 23.1122V23.3476H14.8033V23.1122L15.0388 23.1024L14.8033 23.1122Z" fill="white"/>
</svg>
