<svg width="22" height="22" viewBox="0 0 22 22" fill="none" xmlns="http://www.w3.org/2000/svg">
<path d="M19.25 17.1875H17.1875C17.0052 17.1875 16.8303 17.1151 16.7014 16.9861C16.5724 16.8572 16.5 16.6823 16.5 16.5C16.5 16.3177 16.5724 16.1428 16.7014 16.0139C16.8303 15.8849 17.0052 15.8125 17.1875 15.8125H19.25C19.4323 15.8125 19.6072 15.7401 19.7361 15.6111C19.8651 15.4822 19.9375 15.3073 19.9375 15.125V6.875C19.9375 6.69266 19.8651 6.5178 19.7361 6.38886C19.6072 6.25993 19.4323 6.1875 19.25 6.1875H2.75C2.56766 6.1875 2.3928 6.25993 2.26386 6.38886C2.13493 6.5178 2.0625 6.69266 2.0625 6.875V15.125C2.0625 15.3073 2.13493 15.4822 2.26386 15.6111C2.3928 15.7401 2.56766 15.8125 2.75 15.8125H4.8125C4.99484 15.8125 5.1697 15.8849 5.29864 16.0139C5.42757 16.1428 5.5 16.3177 5.5 16.5C5.5 16.6823 5.42757 16.8572 5.29864 16.9861C5.1697 17.1151 4.99484 17.1875 4.8125 17.1875H2.75C2.20299 17.1875 1.67839 16.9702 1.29159 16.5834C0.904798 16.1966 0.6875 15.672 0.6875 15.125V6.875C0.6875 6.32799 0.904798 5.80339 1.29159 5.41659C1.67839 5.0298 2.20299 4.8125 2.75 4.8125H19.25C19.797 4.8125 20.3216 5.0298 20.7084 5.41659C21.0952 5.80339 21.3125 6.32799 21.3125 6.875V15.125C21.3125 15.672 21.0952 16.1966 20.7084 16.5834C20.3216 16.9702 19.797 17.1875 19.25 17.1875Z" fill="#535454"/>
<path d="M17.1875 21.3125H4.8125C4.63016 21.3125 4.4553 21.2401 4.32636 21.1111C4.19743 20.9822 4.125 20.8073 4.125 20.625V13.75C4.125 13.5677 4.19743 13.3928 4.32636 13.2639C4.4553 13.1349 4.63016 13.0625 4.8125 13.0625H17.1875C17.3698 13.0625 17.5447 13.1349 17.6736 13.2639C17.8026 13.3928 17.875 13.5677 17.875 13.75V20.625C17.875 20.8073 17.8026 20.9822 17.6736 21.1111C17.5447 21.2401 17.3698 21.3125 17.1875 21.3125ZM5.5 19.9375H16.5V14.4375H5.5V19.9375Z" fill="#535454"/>
<path d="M17.1875 6.1875C17.0052 6.1875 16.8303 6.11507 16.7014 5.98614C16.5724 5.8572 16.5 5.68234 16.5 5.5V2.0625H5.5V5.5C5.5 5.68234 5.42757 5.8572 5.29864 5.98614C5.1697 6.11507 4.99484 6.1875 4.8125 6.1875C4.63016 6.1875 4.4553 6.11507 4.32636 5.98614C4.19743 5.8572 4.125 5.68234 4.125 5.5V1.375C4.125 1.19266 4.19743 1.0178 4.32636 0.888864C4.4553 0.759933 4.63016 0.6875 4.8125 0.6875H17.1875C17.3698 0.6875 17.5447 0.759933 17.6736 0.888864C17.8026 1.0178 17.875 1.19266 17.875 1.375V5.5C17.875 5.68234 17.8026 5.8572 17.6736 5.98614C17.5447 6.11507 17.3698 6.1875 17.1875 6.1875Z" fill="#535454"/>
<path d="M17.875 7.5625H16.5V8.9375H17.875V7.5625Z" fill="#535454"/>
<path d="M15.125 7.5625H12.375V8.9375H15.125V7.5625Z" fill="#535454"/>
</svg>
