<svg width="28" height="28" viewBox="0 0 28 28" fill="none" xmlns="http://www.w3.org/2000/svg">
<path fill-rule="evenodd" clip-rule="evenodd" d="M14 0C21.7268 0 28 6.2732 28 14C28 21.7268 21.7268 28 14 28C6.2732 28 0 21.7268 0 14C0 6.2732 6.2732 0 14 0ZM11.5341 21.4461C17.7292 21.4461 21.1166 16.3126 21.1166 11.8636C21.1166 11.717 21.1166 11.5703 21.1096 11.4306C21.7662 10.9557 22.3389 10.362 22.7929 9.6845C22.1922 9.9499 21.5427 10.1315 20.8582 10.2153C21.5567 9.79623 22.0875 9.1397 22.3389 8.35051C21.6893 8.73463 20.97 9.01398 20.2017 9.16765C19.587 8.51112 18.714 8.10606 17.7432 8.10606C15.8854 8.10606 14.3767 9.61466 14.3767 11.4725C14.3767 11.7379 14.4047 11.9963 14.4675 12.2408C11.6668 12.1011 9.18734 10.7601 7.52511 8.72063C7.23871 9.21654 7.07109 9.79623 7.07109 10.4109C7.07109 11.5772 7.66478 12.6109 8.57276 13.2116C8.02096 13.1976 7.50411 13.044 7.05015 12.7926V12.8344C7.05015 14.4688 8.20952 15.8237 9.75308 16.1381C9.47373 16.2148 9.17339 16.2568 8.8661 16.2568C8.64954 16.2568 8.44003 16.2358 8.23052 16.1939C8.65654 17.5349 9.89975 18.5058 11.3735 18.5336C10.221 19.4347 8.76832 19.9725 7.18982 19.9725C6.91742 19.9725 6.65202 19.9585 6.38662 19.9236C7.86034 20.8874 9.63435 21.4461 11.5341 21.4461Z" fill="white"/>
</svg>
